<svg xmlns="http://www.w3.org/2000/svg" viewBox="0 0 64 64">
  <title>Ian McCallum — green Aero IM</title>
  <defs>
    <linearGradient id="body" x2="0" y2="1">
      <stop stop-color="#9ced72"/><stop offset=".48" stop-color="#21a837"/>
      <stop offset=".52" stop-color="#075d1b"/><stop offset="1" stop-color="#168d32"/>
    </linearGradient>
    <linearGradient id="shine" x2="0" y2="1">
      <stop stop-color="#fff" stop-opacity=".72"/><stop offset="1" stop-color="#fff" stop-opacity="0"/>
    </linearGradient>
  </defs>
  <rect x="1" y="1" width="62" height="62" rx="15" fill="#063e15"/>
  <rect x="2.5" y="2.5" width="59" height="59" rx="13.5" fill="url(#body)"/>
  <path d="M5 31V16A11 11 0 0 1 16 5h32a11 11 0 0 1 11 11v9c-17 9-35 11-54 6Z" fill="url(#shine)"/>
  <rect x="3" y="3" width="58" height="58" rx="13" fill="none" stroke="#fff" stroke-opacity=".5"/>
  <path d="M12 19h8v29h-8Zm14 0h8l7 12 7-12h8v29h-8V32l-7 11-7-11v16h-8Z" fill="#063e15" opacity=".7"/>
  <path d="M12 17h8v29h-8Zm14 0h8l7 12 7-12h8v29h-8V30l-7 11-7-11v16h-8Z" fill="#fff"/>
</svg>
